<mxfile host="app.diagrams.net" modified="2020-11-25T12:23:42.037Z" agent="5.0 (Windows NT 10.0; Win64; x64) AppleWebKit/537.36 (KHTML, like Gecko) Chrome/87.0.4280.66 Safari/537.36" etag="hJW2QcnC7MxAIMqkfPwa" version="13.10.2" type="github">
  <diagram id="fQcU_IErCGG1_ALioSDX" name="Page-1">
    <mxGraphModel dx="1550" dy="844" grid="1" gridSize="10" guides="1" tooltips="1" connect="1" arrows="1" fold="1" page="1" pageScale="1" pageWidth="1169" pageHeight="827" math="0" shadow="0">
      <root>
        <mxCell id="0" />
        <mxCell id="1" parent="0" />
        <mxCell id="HGdUBvFEhCQgNbR6o-CE-5" style="edgeStyle=orthogonalEdgeStyle;rounded=0;orthogonalLoop=1;jettySize=auto;html=1;" edge="1" parent="1" source="HGdUBvFEhCQgNbR6o-CE-1" target="HGdUBvFEhCQgNbR6o-CE-4">
          <mxGeometry relative="1" as="geometry" />
        </mxCell>
        <mxCell id="HGdUBvFEhCQgNbR6o-CE-1" value="用户" style="rounded=1;whiteSpace=wrap;html=1;fillColor=#fff2cc;strokeColor=#d6b656;" vertex="1" parent="1">
          <mxGeometry x="160" y="270" width="120" height="60" as="geometry" />
        </mxCell>
        <mxCell id="HGdUBvFEhCQgNbR6o-CE-11" style="edgeStyle=orthogonalEdgeStyle;rounded=0;orthogonalLoop=1;jettySize=auto;html=1;entryX=0.5;entryY=0;entryDx=0;entryDy=0;" edge="1" parent="1" source="HGdUBvFEhCQgNbR6o-CE-2" target="HGdUBvFEhCQgNbR6o-CE-7">
          <mxGeometry relative="1" as="geometry" />
        </mxCell>
        <mxCell id="HGdUBvFEhCQgNbR6o-CE-2" value="场馆" style="rounded=1;whiteSpace=wrap;html=1;fillColor=#dae8fc;strokeColor=#6c8ebf;" vertex="1" parent="1">
          <mxGeometry x="970" y="530" width="120" height="60" as="geometry" />
        </mxCell>
        <mxCell id="HGdUBvFEhCQgNbR6o-CE-29" style="edgeStyle=orthogonalEdgeStyle;rounded=0;orthogonalLoop=1;jettySize=auto;html=1;entryX=0;entryY=0.5;entryDx=0;entryDy=0;" edge="1" parent="1" source="HGdUBvFEhCQgNbR6o-CE-3" target="HGdUBvFEhCQgNbR6o-CE-2">
          <mxGeometry relative="1" as="geometry" />
        </mxCell>
        <mxCell id="HGdUBvFEhCQgNbR6o-CE-31" style="edgeStyle=orthogonalEdgeStyle;rounded=0;orthogonalLoop=1;jettySize=auto;html=1;entryX=0;entryY=0.5;entryDx=0;entryDy=0;" edge="1" parent="1" source="HGdUBvFEhCQgNbR6o-CE-3" target="HGdUBvFEhCQgNbR6o-CE-1">
          <mxGeometry relative="1" as="geometry" />
        </mxCell>
        <mxCell id="HGdUBvFEhCQgNbR6o-CE-3" value="预定记录" style="rounded=1;whiteSpace=wrap;html=1;fillColor=#d5e8d4;strokeColor=#82b366;" vertex="1" parent="1">
          <mxGeometry x="740" y="530" width="120" height="60" as="geometry" />
        </mxCell>
        <mxCell id="HGdUBvFEhCQgNbR6o-CE-8" style="edgeStyle=orthogonalEdgeStyle;rounded=0;orthogonalLoop=1;jettySize=auto;html=1;exitX=1;exitY=0.5;exitDx=0;exitDy=0;entryX=0;entryY=0.5;entryDx=0;entryDy=0;" edge="1" parent="1" source="HGdUBvFEhCQgNbR6o-CE-4" target="HGdUBvFEhCQgNbR6o-CE-7">
          <mxGeometry relative="1" as="geometry" />
        </mxCell>
        <mxCell id="HGdUBvFEhCQgNbR6o-CE-4" value="book_first_come" style="rounded=1;whiteSpace=wrap;html=1;" vertex="1" parent="1">
          <mxGeometry x="410" y="270" width="120" height="60" as="geometry" />
        </mxCell>
        <mxCell id="HGdUBvFEhCQgNbR6o-CE-6" value="api/book" style="text;html=1;strokeColor=none;fillColor=none;align=center;verticalAlign=middle;whiteSpace=wrap;rounded=0;" vertex="1" parent="1">
          <mxGeometry x="320" y="280" width="40" height="20" as="geometry" />
        </mxCell>
        <mxCell id="HGdUBvFEhCQgNbR6o-CE-22" style="edgeStyle=orthogonalEdgeStyle;rounded=0;orthogonalLoop=1;jettySize=auto;html=1;entryX=0.5;entryY=1;entryDx=0;entryDy=0;" edge="1" parent="1" source="HGdUBvFEhCQgNbR6o-CE-7" target="HGdUBvFEhCQgNbR6o-CE-1">
          <mxGeometry relative="1" as="geometry">
            <Array as="points">
              <mxPoint x="805" y="360" />
              <mxPoint x="220" y="360" />
            </Array>
          </mxGeometry>
        </mxCell>
        <mxCell id="HGdUBvFEhCQgNbR6o-CE-24" style="edgeStyle=orthogonalEdgeStyle;rounded=0;orthogonalLoop=1;jettySize=auto;html=1;entryX=0.5;entryY=1;entryDx=0;entryDy=0;exitX=1;exitY=0.5;exitDx=0;exitDy=0;" edge="1" parent="1" source="HGdUBvFEhCQgNbR6o-CE-7" target="HGdUBvFEhCQgNbR6o-CE-1">
          <mxGeometry relative="1" as="geometry">
            <Array as="points">
              <mxPoint x="990" y="300" />
              <mxPoint x="990" y="440" />
              <mxPoint x="220" y="440" />
            </Array>
          </mxGeometry>
        </mxCell>
        <mxCell id="HGdUBvFEhCQgNbR6o-CE-27" style="edgeStyle=orthogonalEdgeStyle;rounded=0;orthogonalLoop=1;jettySize=auto;html=1;exitX=1;exitY=0.5;exitDx=0;exitDy=0;" edge="1" parent="1" source="HGdUBvFEhCQgNbR6o-CE-7" target="HGdUBvFEhCQgNbR6o-CE-3">
          <mxGeometry relative="1" as="geometry">
            <mxPoint x="910" y="440" as="targetPoint" />
          </mxGeometry>
        </mxCell>
        <mxCell id="HGdUBvFEhCQgNbR6o-CE-33" style="edgeStyle=orthogonalEdgeStyle;rounded=0;orthogonalLoop=1;jettySize=auto;html=1;entryX=1;entryY=0.5;entryDx=0;entryDy=0;exitX=1;exitY=0.5;exitDx=0;exitDy=0;" edge="1" parent="1" source="HGdUBvFEhCQgNbR6o-CE-7" target="HGdUBvFEhCQgNbR6o-CE-2">
          <mxGeometry relative="1" as="geometry" />
        </mxCell>
        <mxCell id="HGdUBvFEhCQgNbR6o-CE-7" value="判断：对应时间段场馆状态正确&lt;br&gt;and 当前无人预定" style="rhombus;whiteSpace=wrap;html=1;" vertex="1" parent="1">
          <mxGeometry x="640" y="260" width="330" height="80" as="geometry" />
        </mxCell>
        <mxCell id="HGdUBvFEhCQgNbR6o-CE-12" value="提供时间段状态信息" style="text;html=1;strokeColor=none;fillColor=none;align=center;verticalAlign=middle;whiteSpace=wrap;rounded=0;" vertex="1" parent="1">
          <mxGeometry x="890" y="220" width="120" height="10" as="geometry" />
        </mxCell>
        <mxCell id="HGdUBvFEhCQgNbR6o-CE-16" value="" style="endArrow=none;html=1;entryX=0.5;entryY=0;entryDx=0;entryDy=0;" edge="1" parent="1" target="HGdUBvFEhCQgNbR6o-CE-1">
          <mxGeometry width="50" height="50" relative="1" as="geometry">
            <mxPoint x="220" y="180" as="sourcePoint" />
            <mxPoint x="220" y="260" as="targetPoint" />
          </mxGeometry>
        </mxCell>
        <mxCell id="HGdUBvFEhCQgNbR6o-CE-17" value="" style="endArrow=none;html=1;" edge="1" parent="1">
          <mxGeometry width="50" height="50" relative="1" as="geometry">
            <mxPoint x="220" y="180" as="sourcePoint" />
            <mxPoint x="810" y="180" as="targetPoint" />
          </mxGeometry>
        </mxCell>
        <mxCell id="HGdUBvFEhCQgNbR6o-CE-18" value="" style="endArrow=classic;html=1;entryX=0.5;entryY=0;entryDx=0;entryDy=0;" edge="1" parent="1" target="HGdUBvFEhCQgNbR6o-CE-7">
          <mxGeometry width="50" height="50" relative="1" as="geometry">
            <mxPoint x="805" y="180" as="sourcePoint" />
            <mxPoint x="610" y="380" as="targetPoint" />
          </mxGeometry>
        </mxCell>
        <mxCell id="HGdUBvFEhCQgNbR6o-CE-19" value="提供预定请求信息" style="text;html=1;strokeColor=none;fillColor=none;align=center;verticalAlign=middle;whiteSpace=wrap;rounded=0;" vertex="1" parent="1">
          <mxGeometry x="440" y="160" width="40" height="20" as="geometry" />
        </mxCell>
        <mxCell id="HGdUBvFEhCQgNbR6o-CE-23" value="不满足：返回error" style="text;html=1;strokeColor=none;fillColor=none;align=center;verticalAlign=middle;whiteSpace=wrap;rounded=0;" vertex="1" parent="1">
          <mxGeometry x="700" y="370" width="110" height="20" as="geometry" />
        </mxCell>
        <mxCell id="HGdUBvFEhCQgNbR6o-CE-25" value="满足" style="text;html=1;strokeColor=none;fillColor=none;align=center;verticalAlign=middle;whiteSpace=wrap;rounded=0;" vertex="1" parent="1">
          <mxGeometry x="910" y="340" width="40" height="20" as="geometry" />
        </mxCell>
        <mxCell id="HGdUBvFEhCQgNbR6o-CE-26" value="返回ok" style="text;html=1;strokeColor=none;fillColor=none;align=center;verticalAlign=middle;whiteSpace=wrap;rounded=0;" vertex="1" parent="1">
          <mxGeometry x="450" y="460" width="40" height="20" as="geometry" />
        </mxCell>
        <mxCell id="HGdUBvFEhCQgNbR6o-CE-28" value="创建预定记录" style="text;html=1;strokeColor=none;fillColor=none;align=center;verticalAlign=middle;whiteSpace=wrap;rounded=0;" vertex="1" parent="1">
          <mxGeometry x="810" y="500" width="40" height="20" as="geometry" />
        </mxCell>
        <mxCell id="HGdUBvFEhCQgNbR6o-CE-30" value="插入" style="text;html=1;strokeColor=none;fillColor=none;align=center;verticalAlign=middle;whiteSpace=wrap;rounded=0;" vertex="1" parent="1">
          <mxGeometry x="900" y="570" width="40" height="20" as="geometry" />
        </mxCell>
        <mxCell id="HGdUBvFEhCQgNbR6o-CE-32" value="插入" style="text;html=1;strokeColor=none;fillColor=none;align=center;verticalAlign=middle;whiteSpace=wrap;rounded=0;" vertex="1" parent="1">
          <mxGeometry x="460" y="570" width="40" height="20" as="geometry" />
        </mxCell>
        <mxCell id="HGdUBvFEhCQgNbR6o-CE-35" value="改变时段状态" style="text;html=1;strokeColor=none;fillColor=none;align=center;verticalAlign=middle;whiteSpace=wrap;rounded=0;" vertex="1" parent="1">
          <mxGeometry x="1070" y="460" width="50" height="30" as="geometry" />
        </mxCell>
        <mxCell id="HGdUBvFEhCQgNbR6o-CE-36" value="当前先到先得逻辑" style="text;html=1;strokeColor=none;fillColor=none;align=center;verticalAlign=middle;whiteSpace=wrap;rounded=0;fontSize=17;" vertex="1" parent="1">
          <mxGeometry x="475" y="60" width="220" height="40" as="geometry" />
        </mxCell>
      </root>
    </mxGraphModel>
  </diagram>
</mxfile>
